<svg width="16" height="16" viewBox="0 0 16 16" fill="none" xmlns="http://www.w3.org/2000/svg">
<path d="M7.94469 16C7.82156 16 7.69875 15.9969 7.57688 15.9912H7.52875V15.989C5.50062 15.8839 3.67344 15.0123 2.32719 13.6567C0.889375 12.2089 0 10.2085 0 7.99984C0 5.79118 0.889375 3.79114 2.32719 2.34334C3.67344 0.987748 5.50094 0.116113 7.52875 0.0106988V0.00849608H7.57688C7.69875 0.00283203 7.82156 0 7.94469 0L8.05281 0.000629339L8.05531 0C10.2487 0 12.235 0.895549 13.6728 2.34334C15.1103 3.79114 16 5.79118 16 7.99984C16 10.2085 15.1103 12.2089 13.6728 13.6567C12.235 15.1045 10.2487 16 8.05531 16L8.05281 15.9991L7.94469 16ZM7.52875 15.0384V0.96163C5.76031 1.06579 4.16875 1.83043 2.99344 3.01422C1.72625 4.28989 0.942813 6.05267 0.942813 7.99984C0.942813 9.94733 1.72625 11.7101 2.99344 12.9858C4.16875 14.1693 5.76031 14.9339 7.52875 15.0384Z" fill="black"/>
</svg>
